<mxfile host="Electron" agent="Mozilla/5.0 (Windows NT 10.0; Win64; x64) AppleWebKit/537.36 (KHTML, like Gecko) draw.io/28.0.4 Chrome/138.0.7204.97 Electron/37.2.1 Safari/537.36" version="28.0.4">
  <diagram id="gKfQR6QMqfabCFEobmAz" name="Page-1">
    <mxGraphModel dx="995" dy="726" grid="1" gridSize="10" guides="1" tooltips="1" connect="1" arrows="1" fold="1" page="1" pageScale="1" pageWidth="1100" pageHeight="850" math="0" shadow="0">
      <root>
        <mxCell id="0" />
        <mxCell id="1" parent="0" />
        <mxCell id="CG7hZ_wFSSS8GAl2Qvh1-35" value="" style="rounded=0;whiteSpace=wrap;html=1;dashed=1;dashPattern=8 8;fillColor=#E6E6E6;" vertex="1" parent="1">
          <mxGeometry x="140" y="360" width="780" height="260" as="geometry" />
        </mxCell>
        <mxCell id="XGa5Y8sCl0DmdLY9kct8-3" value="&lt;b&gt;&lt;font style=&quot;font-size: 14px;&quot;&gt;Backplane&lt;/font&gt;&lt;/b&gt;" style="rounded=0;whiteSpace=wrap;html=1;fillColor=#66FF66;strokeColor=#6c8ebf;" parent="1" vertex="1">
          <mxGeometry x="320" y="520" width="580" height="80" as="geometry" />
        </mxCell>
        <mxCell id="CG7hZ_wFSSS8GAl2Qvh1-19" style="edgeStyle=orthogonalEdgeStyle;rounded=0;orthogonalLoop=1;jettySize=auto;html=1;exitX=0.5;exitY=1;exitDx=0;exitDy=0;" edge="1" parent="1" source="XGa5Y8sCl0DmdLY9kct8-4">
          <mxGeometry relative="1" as="geometry">
            <mxPoint x="440" y="360" as="targetPoint" />
          </mxGeometry>
        </mxCell>
        <mxCell id="XGa5Y8sCl0DmdLY9kct8-4" value="&lt;b&gt;KBD&lt;/b&gt;" style="rounded=1;whiteSpace=wrap;html=1;fillColor=#FFCC99;" parent="1" vertex="1">
          <mxGeometry x="340" y="240" width="60" height="40" as="geometry" />
        </mxCell>
        <mxCell id="XGa5Y8sCl0DmdLY9kct8-5" value="&lt;b&gt;Slot 0&lt;/b&gt;" style="rounded=0;whiteSpace=wrap;html=1;fillColor=#FF9999;" parent="1" vertex="1">
          <mxGeometry x="340" y="400" width="60" height="120" as="geometry" />
        </mxCell>
        <mxCell id="CG7hZ_wFSSS8GAl2Qvh1-8" style="edgeStyle=orthogonalEdgeStyle;rounded=0;orthogonalLoop=1;jettySize=auto;html=1;exitX=1;exitY=0.25;exitDx=0;exitDy=0;entryX=0;entryY=0.25;entryDx=0;entryDy=0;" edge="1" parent="1" source="XGa5Y8sCl0DmdLY9kct8-6" target="XGa5Y8sCl0DmdLY9kct8-3">
          <mxGeometry relative="1" as="geometry" />
        </mxCell>
        <mxCell id="CG7hZ_wFSSS8GAl2Qvh1-9" style="edgeStyle=orthogonalEdgeStyle;rounded=0;orthogonalLoop=1;jettySize=auto;html=1;exitX=1;exitY=0.75;exitDx=0;exitDy=0;entryX=0;entryY=0.75;entryDx=0;entryDy=0;" edge="1" parent="1" source="XGa5Y8sCl0DmdLY9kct8-6" target="XGa5Y8sCl0DmdLY9kct8-3">
          <mxGeometry relative="1" as="geometry" />
        </mxCell>
        <mxCell id="XGa5Y8sCl0DmdLY9kct8-6" value="&lt;b&gt;&lt;font style=&quot;font-size: 14px;&quot;&gt;Power&lt;/font&gt;&lt;/b&gt;&lt;div&gt;&lt;b&gt;&lt;font style=&quot;font-size: 14px;&quot;&gt;Supply&lt;/font&gt;&lt;/b&gt;&lt;/div&gt;" style="rounded=0;whiteSpace=wrap;html=1;fillColor=#FFFF99;" parent="1" vertex="1">
          <mxGeometry x="160" y="520" width="80" height="80" as="geometry" />
        </mxCell>
        <mxCell id="CG7hZ_wFSSS8GAl2Qvh1-2" value="&lt;b&gt;Slot 1&lt;/b&gt;" style="rounded=0;whiteSpace=wrap;html=1;fillColor=#CC99FF;" vertex="1" parent="1">
          <mxGeometry x="420" y="400" width="60" height="120" as="geometry" />
        </mxCell>
        <mxCell id="CG7hZ_wFSSS8GAl2Qvh1-3" value="&lt;b&gt;Slot 2&lt;/b&gt;" style="rounded=0;whiteSpace=wrap;html=1;fillColor=#CC99FF;" vertex="1" parent="1">
          <mxGeometry x="500" y="400" width="60" height="120" as="geometry" />
        </mxCell>
        <mxCell id="CG7hZ_wFSSS8GAl2Qvh1-4" value="&lt;b&gt;Slot 3&lt;/b&gt;" style="rounded=0;whiteSpace=wrap;html=1;fillColor=#CC99FF;" vertex="1" parent="1">
          <mxGeometry x="580" y="400" width="60" height="120" as="geometry" />
        </mxCell>
        <mxCell id="CG7hZ_wFSSS8GAl2Qvh1-5" value="&lt;b&gt;Slot 4&lt;/b&gt;" style="rounded=0;whiteSpace=wrap;html=1;fillColor=#99FFFF;" vertex="1" parent="1">
          <mxGeometry x="660" y="400" width="60" height="120" as="geometry" />
        </mxCell>
        <mxCell id="CG7hZ_wFSSS8GAl2Qvh1-6" value="&lt;b&gt;Slot 5&lt;/b&gt;" style="rounded=0;whiteSpace=wrap;html=1;fillColor=#99FFFF;" vertex="1" parent="1">
          <mxGeometry x="740" y="400" width="60" height="120" as="geometry" />
        </mxCell>
        <mxCell id="CG7hZ_wFSSS8GAl2Qvh1-7" value="&lt;b&gt;Slot 6&lt;/b&gt;" style="rounded=0;whiteSpace=wrap;html=1;fillColor=#99FFFF;" vertex="1" parent="1">
          <mxGeometry x="820" y="400" width="60" height="120" as="geometry" />
        </mxCell>
        <mxCell id="CG7hZ_wFSSS8GAl2Qvh1-10" value="CPU" style="text;html=1;align=center;verticalAlign=middle;whiteSpace=wrap;rounded=0;" vertex="1" parent="1">
          <mxGeometry x="340" y="370" width="60" height="30" as="geometry" />
        </mxCell>
        <mxCell id="CG7hZ_wFSSS8GAl2Qvh1-12" value="KV" style="text;html=1;align=center;verticalAlign=middle;whiteSpace=wrap;rounded=0;" vertex="1" parent="1">
          <mxGeometry x="420" y="370" width="60" height="30" as="geometry" />
        </mxCell>
        <mxCell id="CG7hZ_wFSSS8GAl2Qvh1-13" value="Audio" style="text;html=1;align=center;verticalAlign=middle;whiteSpace=wrap;rounded=0;" vertex="1" parent="1">
          <mxGeometry x="500" y="370" width="60" height="30" as="geometry" />
        </mxCell>
        <mxCell id="CG7hZ_wFSSS8GAl2Qvh1-14" value="Storage" style="text;html=1;align=center;verticalAlign=middle;whiteSpace=wrap;rounded=0;" vertex="1" parent="1">
          <mxGeometry x="580" y="370" width="60" height="30" as="geometry" />
        </mxCell>
        <mxCell id="CG7hZ_wFSSS8GAl2Qvh1-15" value="Serial" style="text;html=1;align=center;verticalAlign=middle;whiteSpace=wrap;rounded=0;" vertex="1" parent="1">
          <mxGeometry x="660" y="370" width="60" height="30" as="geometry" />
        </mxCell>
        <mxCell id="CG7hZ_wFSSS8GAl2Qvh1-16" value="Parallel" style="text;html=1;align=center;verticalAlign=middle;whiteSpace=wrap;rounded=0;" vertex="1" parent="1">
          <mxGeometry x="740" y="370" width="60" height="30" as="geometry" />
        </mxCell>
        <mxCell id="CG7hZ_wFSSS8GAl2Qvh1-22" style="edgeStyle=orthogonalEdgeStyle;rounded=0;orthogonalLoop=1;jettySize=auto;html=1;exitX=0.75;exitY=1;exitDx=0;exitDy=0;entryX=0.75;entryY=1;entryDx=0;entryDy=0;" edge="1" parent="1">
          <mxGeometry relative="1" as="geometry">
            <mxPoint x="459" y="280" as="targetPoint" />
            <mxPoint x="459" y="360" as="sourcePoint" />
            <Array as="points">
              <mxPoint x="459" y="320" />
              <mxPoint x="459" y="320" />
            </Array>
          </mxGeometry>
        </mxCell>
        <mxCell id="CG7hZ_wFSSS8GAl2Qvh1-17" value="&lt;b&gt;TV&lt;/b&gt;" style="rounded=1;whiteSpace=wrap;html=1;fillColor=#FFCC99;" vertex="1" parent="1">
          <mxGeometry x="420" y="240" width="60" height="40" as="geometry" />
        </mxCell>
        <mxCell id="CG7hZ_wFSSS8GAl2Qvh1-21" style="edgeStyle=orthogonalEdgeStyle;rounded=0;orthogonalLoop=1;jettySize=auto;html=1;exitX=0.5;exitY=1;exitDx=0;exitDy=0;entryX=0.5;entryY=1;entryDx=0;entryDy=0;" edge="1" parent="1" target="CG7hZ_wFSSS8GAl2Qvh1-18">
          <mxGeometry relative="1" as="geometry">
            <mxPoint x="530" y="360" as="sourcePoint" />
          </mxGeometry>
        </mxCell>
        <mxCell id="CG7hZ_wFSSS8GAl2Qvh1-18" value="&lt;b&gt;Spkr&lt;/b&gt;" style="rounded=1;whiteSpace=wrap;html=1;fillColor=#FFCC99;" vertex="1" parent="1">
          <mxGeometry x="500" y="240" width="60" height="40" as="geometry" />
        </mxCell>
        <mxCell id="CG7hZ_wFSSS8GAl2Qvh1-24" value="PS2" style="text;html=1;align=center;verticalAlign=middle;whiteSpace=wrap;rounded=0;" vertex="1" parent="1">
          <mxGeometry x="360" y="290" width="60" height="30" as="geometry" />
        </mxCell>
        <mxCell id="CG7hZ_wFSSS8GAl2Qvh1-25" value="Comp&lt;div&gt;Vid&lt;/div&gt;" style="text;html=1;align=center;verticalAlign=middle;whiteSpace=wrap;rounded=0;" vertex="1" parent="1">
          <mxGeometry x="450" y="300" width="60" height="30" as="geometry" />
        </mxCell>
        <mxCell id="CG7hZ_wFSSS8GAl2Qvh1-26" value="Analog" style="text;html=1;align=center;verticalAlign=middle;whiteSpace=wrap;rounded=0;" vertex="1" parent="1">
          <mxGeometry x="530" y="300" width="60" height="30" as="geometry" />
        </mxCell>
        <mxCell id="CG7hZ_wFSSS8GAl2Qvh1-27" value="5V" style="text;html=1;align=center;verticalAlign=middle;whiteSpace=wrap;rounded=0;" vertex="1" parent="1">
          <mxGeometry x="240" y="510" width="60" height="30" as="geometry" />
        </mxCell>
        <mxCell id="CG7hZ_wFSSS8GAl2Qvh1-28" value="3.3V" style="text;html=1;align=center;verticalAlign=middle;whiteSpace=wrap;rounded=0;" vertex="1" parent="1">
          <mxGeometry x="240" y="550" width="60" height="30" as="geometry" />
        </mxCell>
        <mxCell id="CG7hZ_wFSSS8GAl2Qvh1-33" value="&lt;b&gt;&lt;font style=&quot;font-size: 18px;&quot;&gt;RetroComp System Block Diagram&lt;/font&gt;&lt;/b&gt;" style="text;html=1;align=center;verticalAlign=middle;whiteSpace=wrap;rounded=0;" vertex="1" parent="1">
          <mxGeometry x="370" y="170" width="350" height="30" as="geometry" />
        </mxCell>
      </root>
    </mxGraphModel>
  </diagram>
</mxfile>
